<mxfile host="65bd71144e">
    <diagram name="Pagina-1" id="Qn5EjGO15V_ZMp10GDhG">
        <mxGraphModel dx="780" dy="604" grid="1" gridSize="10" guides="1" tooltips="1" connect="1" arrows="1" fold="1" page="1" pageScale="1" pageWidth="3300" pageHeight="2339" math="0" shadow="0">
            <root>
                <mxCell id="0"/>
                <mxCell id="1" parent="0"/>
                <mxCell id="CFf1ZAYyLSzgrhuiBxSv-1" value="CLASSIFIER EVALUATION" style="strokeWidth=1;shadow=0;dashed=0;align=center;html=1;shape=mxgraph.mockup.containers.window;align=left;verticalAlign=top;spacingLeft=8;strokeColor2=#008cff;strokeColor3=#c4c4c4;fontColor=#666666;mainText=;fontSize=17;labelBackgroundColor=none;whiteSpace=wrap;" parent="1" vertex="1">
                    <mxGeometry x="30" y="30" width="600" height="690" as="geometry"/>
                </mxCell>
                <mxCell id="CFf1ZAYyLSzgrhuiBxSv-61" value="" style="group" parent="1" vertex="1" connectable="0">
                    <mxGeometry x="165" y="657" width="140" height="33" as="geometry"/>
                </mxCell>
                <mxCell id="CFf1ZAYyLSzgrhuiBxSv-58" value="&lt;b&gt;Refuse&lt;/b&gt;&lt;br&gt;[invalid classifier]" style="rounded=1;fillColor=#0057D8;align=center;strokeColor=none;html=1;whiteSpace=wrap;fontColor=#ffffff;fontSize=12;sketch=0;" parent="CFf1ZAYyLSzgrhuiBxSv-61" vertex="1">
                    <mxGeometry x="25" y="-20" width="115" height="53" as="geometry"/>
                </mxCell>
                <mxCell id="CFf1ZAYyLSzgrhuiBxSv-59" value="" style="html=1;shadow=0;dashed=0;shape=mxgraph.atlassian.close;fillColor=#BA3200;strokeColor=none;html=1;sketch=0;" parent="CFf1ZAYyLSzgrhuiBxSv-61" vertex="1">
                    <mxGeometry y="-0.5" width="14" height="14" as="geometry"/>
                </mxCell>
                <mxCell id="CFf1ZAYyLSzgrhuiBxSv-74" value="Table of Label Pairs and Errors" style="text;html=1;strokeColor=none;fillColor=none;align=center;verticalAlign=middle;whiteSpace=wrap;rounded=0;fontStyle=1;fontSize=14;" parent="1" vertex="1">
                    <mxGeometry x="55" y="80" width="540" height="30" as="geometry"/>
                </mxCell>
                <mxCell id="CFf1ZAYyLSzgrhuiBxSv-114" value="Errors Analysis" style="text;html=1;strokeColor=none;fillColor=none;align=center;verticalAlign=middle;whiteSpace=wrap;rounded=0;fontStyle=1;fontSize=14;" parent="1" vertex="1">
                    <mxGeometry x="55" y="350" width="170" height="30" as="geometry"/>
                </mxCell>
                <mxCell id="CFf1ZAYyLSzgrhuiBxSv-140" value="7" style="text;html=1;strokeColor=none;fillColor=#f8cecc;align=center;verticalAlign=middle;whiteSpace=wrap;rounded=1;" parent="1" vertex="1">
                    <mxGeometry x="175" y="430" width="60" height="50" as="geometry"/>
                </mxCell>
                <mxCell id="CFf1ZAYyLSzgrhuiBxSv-138" value="197" style="text;html=1;strokeColor=none;fillColor=#f8cecc;align=center;verticalAlign=middle;whiteSpace=wrap;rounded=1;" parent="1" vertex="1">
                    <mxGeometry x="175" y="390" width="60" height="30" as="geometry"/>
                </mxCell>
                <mxCell id="CFf1ZAYyLSzgrhuiBxSv-137" value="Total # Errors" style="text;html=1;strokeColor=none;fillColor=#f5f5f5;align=center;verticalAlign=middle;whiteSpace=wrap;rounded=1;fontColor=#333333;" parent="1" vertex="1">
                    <mxGeometry x="70" y="390" width="105" height="30" as="geometry"/>
                </mxCell>
                <mxCell id="CFf1ZAYyLSzgrhuiBxSv-139" value="Maximum Consecutive &lt;br&gt;Errors" style="text;html=1;strokeColor=none;fillColor=#f5f5f5;align=center;verticalAlign=middle;whiteSpace=wrap;rounded=1;fontColor=#333333;" parent="1" vertex="1">
                    <mxGeometry x="68.87" y="430" width="106.13" height="50" as="geometry"/>
                </mxCell>
                <mxCell id="CFf1ZAYyLSzgrhuiBxSv-142" value="Thresholds" style="text;html=1;strokeColor=none;fillColor=none;align=center;verticalAlign=middle;whiteSpace=wrap;rounded=0;fontStyle=1;fontSize=14;" parent="1" vertex="1">
                    <mxGeometry x="335" y="350" width="170" height="30" as="geometry"/>
                </mxCell>
                <mxCell id="CFf1ZAYyLSzgrhuiBxSv-145" value="Maximum Allowed &lt;br&gt;Total Errors" style="text;html=1;strokeColor=none;fillColor=#f5f5f5;align=center;verticalAlign=middle;whiteSpace=wrap;rounded=1;fontColor=#333333;" parent="1" vertex="1">
                    <mxGeometry x="295" y="390" width="130" height="40" as="geometry"/>
                </mxCell>
                <mxCell id="CFf1ZAYyLSzgrhuiBxSv-146" value="" style="dashed=0;verticalLabelPosition=bottom;verticalAlign=top;align=center;shape=mxgraph.gmdl.sliderFocused;barPos=65.17;strokeColor=#3F51B5;opacity=100;strokeWidth=2;fillColor=#3F51B5;handleSize=30;shadow=0;html=1;" parent="1" vertex="1">
                    <mxGeometry x="445" y="396" width="110" height="30" as="geometry"/>
                </mxCell>
                <mxCell id="CFf1ZAYyLSzgrhuiBxSv-147" value="150" style="text;html=1;align=center;verticalAlign=middle;whiteSpace=wrap;rounded=1;" parent="1" vertex="1">
                    <mxGeometry x="545" y="391" width="60" height="40" as="geometry"/>
                </mxCell>
                <mxCell id="CFf1ZAYyLSzgrhuiBxSv-160" value="Maximum Allowed &lt;br&gt;Consecutive Errors" style="text;html=1;strokeColor=none;fillColor=#f5f5f5;align=center;verticalAlign=middle;whiteSpace=wrap;rounded=1;fontColor=#333333;" parent="1" vertex="1">
                    <mxGeometry x="295" y="439" width="130" height="40" as="geometry"/>
                </mxCell>
                <mxCell id="CFf1ZAYyLSzgrhuiBxSv-161" value="" style="dashed=0;verticalLabelPosition=bottom;verticalAlign=top;align=center;shape=mxgraph.gmdl.sliderFocused;barPos=41.64;strokeColor=#3F51B5;opacity=100;strokeWidth=2;fillColor=#3F51B5;handleSize=30;shadow=0;html=1;" parent="1" vertex="1">
                    <mxGeometry x="445" y="450" width="110" height="30" as="geometry"/>
                </mxCell>
                <mxCell id="CFf1ZAYyLSzgrhuiBxSv-162" value="15" style="text;html=1;align=center;verticalAlign=middle;whiteSpace=wrap;rounded=1;" parent="1" vertex="1">
                    <mxGeometry x="545" y="445" width="60" height="40" as="geometry"/>
                </mxCell>
                <mxCell id="CFf1ZAYyLSzgrhuiBxSv-164" value="Errors - Thresholds Check" style="text;html=1;strokeColor=none;fillColor=none;align=center;verticalAlign=middle;whiteSpace=wrap;rounded=0;fontStyle=1;fontSize=14;" parent="1" vertex="1">
                    <mxGeometry x="217.5" y="500" width="215" height="30" as="geometry"/>
                </mxCell>
                <mxCell id="CFf1ZAYyLSzgrhuiBxSv-170" value="NO" style="text;html=1;strokeColor=none;fillColor=#f8cecc;align=center;verticalAlign=middle;whiteSpace=wrap;rounded=1;" parent="1" vertex="1">
                    <mxGeometry x="485" y="530" width="60" height="30" as="geometry"/>
                </mxCell>
                <mxCell id="CFf1ZAYyLSzgrhuiBxSv-171" value="Total # Errors &amp;lt; Maximum Allowed Total Errors" style="text;html=1;strokeColor=none;fillColor=#f5f5f5;align=center;verticalAlign=middle;whiteSpace=wrap;rounded=1;fontColor=#333333;" parent="1" vertex="1">
                    <mxGeometry x="80" y="530" width="405" height="30" as="geometry"/>
                </mxCell>
                <mxCell id="CFf1ZAYyLSzgrhuiBxSv-179" value="OK" style="text;html=1;strokeColor=none;fillColor=#d5e8d4;align=center;verticalAlign=middle;whiteSpace=wrap;rounded=1;" parent="1" vertex="1">
                    <mxGeometry x="485" y="570" width="60" height="30" as="geometry"/>
                </mxCell>
                <mxCell id="CFf1ZAYyLSzgrhuiBxSv-180" value="Maximum Consecutive Errors&amp;nbsp;&amp;lt; Maximum Allowed Consecutive Errors" style="text;html=1;strokeColor=none;fillColor=#f5f5f5;align=center;verticalAlign=middle;whiteSpace=wrap;rounded=1;fontColor=#333333;" parent="1" vertex="1">
                    <mxGeometry x="80" y="570" width="405" height="30" as="geometry"/>
                </mxCell>
                <mxCell id="EfdLprBS7-gR66xgq3Gq-1" value="" style="group;shadow=0;" parent="1" vertex="1" connectable="0">
                    <mxGeometry x="335" y="637" width="140" height="53" as="geometry"/>
                </mxCell>
                <mxCell id="CFf1ZAYyLSzgrhuiBxSv-56" value="&lt;b&gt;Submit &lt;/b&gt;&lt;br&gt;[valid classifier]" style="rounded=1;fillColor=#0050ef;align=center;strokeColor=none;html=1;whiteSpace=wrap;fontSize=12;sketch=0;fontColor=#ffffff;opacity=50;" parent="EfdLprBS7-gR66xgq3Gq-1" vertex="1">
                    <mxGeometry x="25" width="115" height="53" as="geometry"/>
                </mxCell>
                <mxCell id="CFf1ZAYyLSzgrhuiBxSv-57" value="" style="html=1;shadow=0;dashed=0;shape=mxgraph.atlassian.checkbox;fillColor=#008465;strokeColor=none;html=1;sketch=0;" parent="EfdLprBS7-gR66xgq3Gq-1" vertex="1">
                    <mxGeometry y="19.5" width="14" height="14" as="geometry"/>
                </mxCell>
                <mxCell id="2" value="" style="group" parent="1" vertex="1" connectable="0">
                    <mxGeometry x="100" y="120" width="455" height="210" as="geometry"/>
                </mxCell>
                <mxCell id="CFf1ZAYyLSzgrhuiBxSv-75" value="" style="shape=table;startSize=0;container=1;collapsible=0;childLayout=tableLayout;fontSize=12;" parent="2" vertex="1">
                    <mxGeometry width="435" height="210" as="geometry"/>
                </mxCell>
                <mxCell id="CFf1ZAYyLSzgrhuiBxSv-76" value="" style="shape=tableRow;horizontal=0;startSize=0;swimlaneHead=0;swimlaneBody=0;strokeColor=inherit;top=0;left=0;bottom=0;right=0;collapsible=0;dropTarget=0;fillColor=none;points=[[0,0.5],[1,0.5]];portConstraint=eastwest;fontSize=16;" parent="CFf1ZAYyLSzgrhuiBxSv-75" vertex="1">
                    <mxGeometry width="435" height="35" as="geometry"/>
                </mxCell>
                <mxCell id="CFf1ZAYyLSzgrhuiBxSv-77" value="Expert Label" style="shape=partialRectangle;html=1;whiteSpace=wrap;connectable=0;strokeColor=default;overflow=hidden;fillColor=#dae8fc;top=0;left=0;bottom=0;right=0;pointerEvents=1;fontSize=12;" parent="CFf1ZAYyLSzgrhuiBxSv-76" vertex="1">
                    <mxGeometry width="144" height="35" as="geometry">
                        <mxRectangle width="144" height="35" as="alternateBounds"/>
                    </mxGeometry>
                </mxCell>
                <mxCell id="CFf1ZAYyLSzgrhuiBxSv-78" value="Classifier Label" style="shape=partialRectangle;html=1;whiteSpace=wrap;connectable=0;strokeColor=default;overflow=hidden;fillColor=#dae8fc;top=0;left=0;bottom=0;right=0;pointerEvents=1;fontSize=12;" parent="CFf1ZAYyLSzgrhuiBxSv-76" vertex="1">
                    <mxGeometry x="144" width="147" height="35" as="geometry">
                        <mxRectangle width="147" height="35" as="alternateBounds"/>
                    </mxGeometry>
                </mxCell>
                <mxCell id="CFf1ZAYyLSzgrhuiBxSv-79" value="Error" style="shape=partialRectangle;html=1;whiteSpace=wrap;connectable=0;strokeColor=default;overflow=hidden;fillColor=#dae8fc;top=0;left=0;bottom=0;right=0;pointerEvents=1;fontSize=12;" parent="CFf1ZAYyLSzgrhuiBxSv-76" vertex="1">
                    <mxGeometry x="291" width="144" height="35" as="geometry">
                        <mxRectangle width="144" height="35" as="alternateBounds"/>
                    </mxGeometry>
                </mxCell>
                <mxCell id="CFf1ZAYyLSzgrhuiBxSv-80" value="" style="shape=tableRow;horizontal=0;startSize=0;swimlaneHead=0;swimlaneBody=0;strokeColor=inherit;top=0;left=0;bottom=0;right=0;collapsible=0;dropTarget=0;fillColor=none;points=[[0,0.5],[1,0.5]];portConstraint=eastwest;fontSize=16;" parent="CFf1ZAYyLSzgrhuiBxSv-75" vertex="1">
                    <mxGeometry y="35" width="435" height="35" as="geometry"/>
                </mxCell>
                <mxCell id="CFf1ZAYyLSzgrhuiBxSv-81" value="Low damage" style="shape=partialRectangle;html=1;whiteSpace=wrap;connectable=0;strokeColor=inherit;overflow=hidden;fillColor=none;top=0;left=0;bottom=0;right=0;pointerEvents=1;fontSize=12;" parent="CFf1ZAYyLSzgrhuiBxSv-80" vertex="1">
                    <mxGeometry width="144" height="35" as="geometry">
                        <mxRectangle width="144" height="35" as="alternateBounds"/>
                    </mxGeometry>
                </mxCell>
                <mxCell id="CFf1ZAYyLSzgrhuiBxSv-82" value="Low damage" style="shape=partialRectangle;html=1;whiteSpace=wrap;connectable=0;strokeColor=inherit;overflow=hidden;fillColor=none;top=0;left=0;bottom=0;right=0;pointerEvents=1;fontSize=12;" parent="CFf1ZAYyLSzgrhuiBxSv-80" vertex="1">
                    <mxGeometry x="144" width="147" height="35" as="geometry">
                        <mxRectangle width="147" height="35" as="alternateBounds"/>
                    </mxGeometry>
                </mxCell>
                <mxCell id="CFf1ZAYyLSzgrhuiBxSv-83" value="NO" style="shape=partialRectangle;html=1;whiteSpace=wrap;connectable=0;strokeColor=inherit;overflow=hidden;fillColor=none;top=0;left=0;bottom=0;right=0;pointerEvents=1;fontSize=12;" parent="CFf1ZAYyLSzgrhuiBxSv-80" vertex="1">
                    <mxGeometry x="291" width="144" height="35" as="geometry">
                        <mxRectangle width="144" height="35" as="alternateBounds"/>
                    </mxGeometry>
                </mxCell>
                <mxCell id="CFf1ZAYyLSzgrhuiBxSv-84" value="" style="shape=tableRow;horizontal=0;startSize=0;swimlaneHead=0;swimlaneBody=0;strokeColor=inherit;top=0;left=0;bottom=0;right=0;collapsible=0;dropTarget=0;fillColor=none;points=[[0,0.5],[1,0.5]];portConstraint=eastwest;fontSize=16;" parent="CFf1ZAYyLSzgrhuiBxSv-75" vertex="1">
                    <mxGeometry y="70" width="435" height="35" as="geometry"/>
                </mxCell>
                <mxCell id="CFf1ZAYyLSzgrhuiBxSv-85" value="Low damange" style="shape=partialRectangle;html=1;whiteSpace=wrap;connectable=0;strokeColor=inherit;overflow=hidden;fillColor=none;top=0;left=0;bottom=0;right=0;pointerEvents=1;fontSize=12;" parent="CFf1ZAYyLSzgrhuiBxSv-84" vertex="1">
                    <mxGeometry width="144" height="35" as="geometry">
                        <mxRectangle width="144" height="35" as="alternateBounds"/>
                    </mxGeometry>
                </mxCell>
                <mxCell id="CFf1ZAYyLSzgrhuiBxSv-86" value="Medium damage" style="shape=partialRectangle;html=1;whiteSpace=wrap;connectable=0;strokeColor=inherit;overflow=hidden;fillColor=none;top=0;left=0;bottom=0;right=0;pointerEvents=1;fontSize=12;" parent="CFf1ZAYyLSzgrhuiBxSv-84" vertex="1">
                    <mxGeometry x="144" width="147" height="35" as="geometry">
                        <mxRectangle width="147" height="35" as="alternateBounds"/>
                    </mxGeometry>
                </mxCell>
                <mxCell id="CFf1ZAYyLSzgrhuiBxSv-87" value="YES" style="shape=partialRectangle;html=1;whiteSpace=wrap;connectable=0;strokeColor=inherit;overflow=hidden;fillColor=none;top=0;left=0;bottom=0;right=0;pointerEvents=1;fontSize=12;" parent="CFf1ZAYyLSzgrhuiBxSv-84" vertex="1">
                    <mxGeometry x="291" width="144" height="35" as="geometry">
                        <mxRectangle width="144" height="35" as="alternateBounds"/>
                    </mxGeometry>
                </mxCell>
                <mxCell id="CFf1ZAYyLSzgrhuiBxSv-94" style="shape=tableRow;horizontal=0;startSize=0;swimlaneHead=0;swimlaneBody=0;strokeColor=inherit;top=0;left=0;bottom=0;right=0;collapsible=0;dropTarget=0;fillColor=none;points=[[0,0.5],[1,0.5]];portConstraint=eastwest;fontSize=16;" parent="CFf1ZAYyLSzgrhuiBxSv-75" vertex="1">
                    <mxGeometry y="105" width="435" height="35" as="geometry"/>
                </mxCell>
                <mxCell id="CFf1ZAYyLSzgrhuiBxSv-96" value="High damage" style="shape=partialRectangle;html=1;whiteSpace=wrap;connectable=0;strokeColor=inherit;overflow=hidden;fillColor=none;top=0;left=0;bottom=0;right=0;pointerEvents=1;fontSize=12;" parent="CFf1ZAYyLSzgrhuiBxSv-94" vertex="1">
                    <mxGeometry width="144" height="35" as="geometry">
                        <mxRectangle width="144" height="35" as="alternateBounds"/>
                    </mxGeometry>
                </mxCell>
                <mxCell id="CFf1ZAYyLSzgrhuiBxSv-97" value="High damage" style="shape=partialRectangle;html=1;whiteSpace=wrap;connectable=0;strokeColor=inherit;overflow=hidden;fillColor=none;top=0;left=0;bottom=0;right=0;pointerEvents=1;fontSize=12;" parent="CFf1ZAYyLSzgrhuiBxSv-94" vertex="1">
                    <mxGeometry x="144" width="147" height="35" as="geometry">
                        <mxRectangle width="147" height="35" as="alternateBounds"/>
                    </mxGeometry>
                </mxCell>
                <mxCell id="CFf1ZAYyLSzgrhuiBxSv-98" value="NO" style="shape=partialRectangle;html=1;whiteSpace=wrap;connectable=0;strokeColor=inherit;overflow=hidden;fillColor=none;top=0;left=0;bottom=0;right=0;pointerEvents=1;fontSize=12;" parent="CFf1ZAYyLSzgrhuiBxSv-94" vertex="1">
                    <mxGeometry x="291" width="144" height="35" as="geometry">
                        <mxRectangle width="144" height="35" as="alternateBounds"/>
                    </mxGeometry>
                </mxCell>
                <mxCell id="CFf1ZAYyLSzgrhuiBxSv-102" style="shape=tableRow;horizontal=0;startSize=0;swimlaneHead=0;swimlaneBody=0;strokeColor=inherit;top=0;left=0;bottom=0;right=0;collapsible=0;dropTarget=0;fillColor=none;points=[[0,0.5],[1,0.5]];portConstraint=eastwest;fontSize=16;" parent="CFf1ZAYyLSzgrhuiBxSv-75" vertex="1">
                    <mxGeometry y="140" width="435" height="35" as="geometry"/>
                </mxCell>
                <mxCell id="CFf1ZAYyLSzgrhuiBxSv-104" value="Medium damage" style="shape=partialRectangle;html=1;whiteSpace=wrap;connectable=0;strokeColor=inherit;overflow=hidden;fillColor=none;top=0;left=0;bottom=0;right=0;pointerEvents=1;fontSize=12;" parent="CFf1ZAYyLSzgrhuiBxSv-102" vertex="1">
                    <mxGeometry width="144" height="35" as="geometry">
                        <mxRectangle width="144" height="35" as="alternateBounds"/>
                    </mxGeometry>
                </mxCell>
                <mxCell id="CFf1ZAYyLSzgrhuiBxSv-105" value="Medium damage" style="shape=partialRectangle;html=1;whiteSpace=wrap;connectable=0;strokeColor=inherit;overflow=hidden;fillColor=none;top=0;left=0;bottom=0;right=0;pointerEvents=1;fontSize=12;" parent="CFf1ZAYyLSzgrhuiBxSv-102" vertex="1">
                    <mxGeometry x="144" width="147" height="35" as="geometry">
                        <mxRectangle width="147" height="35" as="alternateBounds"/>
                    </mxGeometry>
                </mxCell>
                <mxCell id="CFf1ZAYyLSzgrhuiBxSv-106" value="NO" style="shape=partialRectangle;html=1;whiteSpace=wrap;connectable=0;strokeColor=inherit;overflow=hidden;fillColor=none;top=0;left=0;bottom=0;right=0;pointerEvents=1;fontSize=12;" parent="CFf1ZAYyLSzgrhuiBxSv-102" vertex="1">
                    <mxGeometry x="291" width="144" height="35" as="geometry">
                        <mxRectangle width="144" height="35" as="alternateBounds"/>
                    </mxGeometry>
                </mxCell>
                <mxCell id="CFf1ZAYyLSzgrhuiBxSv-107" style="shape=tableRow;horizontal=0;startSize=0;swimlaneHead=0;swimlaneBody=0;strokeColor=inherit;top=0;left=0;bottom=0;right=0;collapsible=0;dropTarget=0;fillColor=none;points=[[0,0.5],[1,0.5]];portConstraint=eastwest;fontSize=16;" parent="CFf1ZAYyLSzgrhuiBxSv-75" vertex="1">
                    <mxGeometry y="175" width="435" height="35" as="geometry"/>
                </mxCell>
                <mxCell id="CFf1ZAYyLSzgrhuiBxSv-109" value="..." style="shape=partialRectangle;html=1;whiteSpace=wrap;connectable=0;strokeColor=inherit;overflow=hidden;fillColor=none;top=0;left=0;bottom=0;right=0;pointerEvents=1;fontSize=12;" parent="CFf1ZAYyLSzgrhuiBxSv-107" vertex="1">
                    <mxGeometry width="144" height="35" as="geometry">
                        <mxRectangle width="144" height="35" as="alternateBounds"/>
                    </mxGeometry>
                </mxCell>
                <mxCell id="CFf1ZAYyLSzgrhuiBxSv-110" value="..." style="shape=partialRectangle;html=1;whiteSpace=wrap;connectable=0;strokeColor=inherit;overflow=hidden;fillColor=none;top=0;left=0;bottom=0;right=0;pointerEvents=1;fontSize=12;" parent="CFf1ZAYyLSzgrhuiBxSv-107" vertex="1">
                    <mxGeometry x="144" width="147" height="35" as="geometry">
                        <mxRectangle width="147" height="35" as="alternateBounds"/>
                    </mxGeometry>
                </mxCell>
                <mxCell id="CFf1ZAYyLSzgrhuiBxSv-111" value="..." style="shape=partialRectangle;html=1;whiteSpace=wrap;connectable=0;strokeColor=inherit;overflow=hidden;fillColor=none;top=0;left=0;bottom=0;right=0;pointerEvents=1;fontSize=12;" parent="CFf1ZAYyLSzgrhuiBxSv-107" vertex="1">
                    <mxGeometry x="291" width="144" height="35" as="geometry">
                        <mxRectangle width="144" height="35" as="alternateBounds"/>
                    </mxGeometry>
                </mxCell>
                <mxCell id="CFf1ZAYyLSzgrhuiBxSv-99" value="" style="verticalLabelPosition=bottom;shadow=0;dashed=0;align=center;html=1;verticalAlign=top;strokeWidth=1;shape=mxgraph.mockup.navigation.scrollBar;strokeColor=#666666;barPos=20;fillColor2=#99ddff;strokeColor2=none;direction=north;movable=1;resizable=1;rotatable=1;deletable=1;editable=1;locked=0;connectable=1;flipV=1;fillColor=#f5f5f5;fontColor=#333333;" parent="2" vertex="1">
                    <mxGeometry x="435" width="20" height="210" as="geometry"/>
                </mxCell>
            </root>
        </mxGraphModel>
    </diagram>
</mxfile>